<?xml version="1.0" encoding="utf-8"?>
<!-- Generator: Adobe Illustrator 24.0.1, SVG Export Plug-In . SVG Version: 6.00 Build 0)  -->
<svg version="1.1" id="Layer_1" xmlns="http://www.w3.org/2000/svg" xmlns:xlink="http://www.w3.org/1999/xlink" x="0px" y="0px"
	 viewBox="0 0 570 573" style="enable-background:new 0 0 570 573;" xml:space="preserve">
<style type="text/css">
	.st0{fill:#008800;}
</style>
<path class="st0" d="M495,17.2c-17.7,15.5-54.9,52.2-71.3,70.3c-42.4,46.9-78.2,95-109.9,147.8c-35.1,58.4-68.4,130.7-87.9,190.9
	c-3.2,9.9-4.7,13.1-5.7,12.7c-0.8-0.2-39.7-25.7-86.4-56.6c-59.7-39.4-85.4-55.8-86.3-55.2c-0.8,0.5-10.6,13.3-21.9,28.4
	C8.7,378,5.1,383.5,5.3,385.8c0.3,2.5,13.4,11.4,135.3,91.7l135,89l0.7-4.3c0.3-2.3,1.4-10.5,2.3-18.2c9-75.7,41.3-164,91.3-249.5
	C421,207.2,489,124.4,551.9,73.2c6.7-5.5,12.1-10.3,12-10.7c-0.2-0.4-11.3-13.3-24.8-28.8C517,8.4,514.3,5.6,511.5,5.6
	C508.9,5.5,506.1,7.5,495,17.2z"/>
</svg>
