<?xml version="1.0" encoding="utf-8"?>
<!-- Generator: Adobe Illustrator 24.0.1, SVG Export Plug-In . SVG Version: 6.00 Build 0)  -->
<svg version="1.1" id="Layer_1" xmlns="http://www.w3.org/2000/svg" xmlns:xlink="http://www.w3.org/1999/xlink" x="0px" y="0px"
	 viewBox="0 0 570 573" style="enable-background:new 0 0 570 573;" xml:space="preserve">
<style type="text/css">
	.st0{fill:#880000;}
</style>
<path class="st0" d="M38.8,45.7c-14.3,16.9-26,31.1-26,31.5c0,0.3,7.9,7.3,17.5,15.4c56.4,47.6,109.9,96,174.2,157.7l20.8,20
	l-6.8,7.3c-3.7,4-16.6,17.8-28.8,30.6C129.8,371.6,78,431.4,26.7,496.4c-11.1,14-14.1,18.4-13.1,19.3c0.7,0.6,13.7,11.7,29,24.7
	c23.8,20.2,28.4,23.6,31,23.5c2.8,0,4.3-1.4,13.2-12.2c47.8-58.2,131.6-151.8,184.6-206l14.4-14.7l22.6,23.7
	c64.9,68.3,118.8,128.6,174.3,195.1c11.3,13.5,12.1,14.3,15.2,14c4.8-0.4,58.4-46,58.4-49.7c0-2.6-1.2-4.3-23.4-32.1
	c-48.3-60.6-100.4-120-161.8-184.7c-13.6-14.4-24.8-26.4-24.8-26.6c0-1.4,55.5-54.5,88-84.3c36.2-33.1,99.3-88.5,117.8-103.3
	c3.1-2.5,4.2-4.2,4.2-6.2c0-2.1-5.7-9.4-25.1-32.3C517.5,28.3,505.9,15,505.6,15c-0.7,0-29.2,23.3-54.3,44.6
	c-52.8,44.7-102.9,90-157.7,142.8l-8.2,7.9L270,195.4c-37.2-36.2-88.2-82.6-132.2-120.4c-28.4-24.5-71.4-60-72.5-60
	C65,15,53.1,28.8,38.8,45.7z"/>
</svg>
